#N canvas 0 23 1280 751 10;
#X obj 368 -13 cnv 15 665 140 empty empty Mapeamento_MIDI 20 12 0 14
-195575 -66577 0;
#X obj 509 36 * 1000;
#X obj 509 56 / 127;
#X obj 595 57 / 127;
#X obj 420 98 s volMaster;
#X obj 420 59 / 127;
#X obj 11 132 cnv 15 820 620 empty empty Sampler 20 12 0 24 -253677
-66577 0;
#X obj 839 132 cnv 15 300 620 empty empty Efeitos_(Send) 20 12 0 14
-240551 -66577 0;
#X obj 884 675 s~ master;
#X obj 938 202 r delTime;
#X obj 1001 202 r delFeedback;
#X obj 1146 132 cnv 15 200 620 empty empty Master 20 12 0 14 -223918
-66577 0;
#N canvas 0 23 450 361 master 0;
#X obj 98 104 cnv 15 100 60 empty empty Master 20 12 0 14 -262144 -66577
0;
#X obj 104 413 *~;
#X obj 122 162 vsl 30 128 0 1.2 0 1 empty empty Volume 0 -9 0 10 -262144
-1 -1 10600 1;
#X floatatom 122 302 5 0 0 0 - - -, f 5;
#X obj 104 436 outlet~;
#X obj 101 51 inlet~;
#X obj 231 71 inlet;
#X obj 304 304 metro 100;
#X obj 304 304 metro 100;
#X obj 302 282 tgl 15 0 empty empty empty 17 7 0 10 -262144 -1 -1 1
1;
#X text 221 308 visualizar;
#X obj 278 335 tabwrite~ masterout;
#X obj 296 219 loadbang;
#X msg 300 245 1;
#X connect 1 0 4 0;
#X connect 1 0 11 0;
#X connect 2 0 3 0;
#X connect 3 0 1 1;
#X connect 5 0 1 0;
#X connect 6 0 2 0;
#X connect 7 0 11 0;
#X connect 9 0 7 0;
#X connect 12 0 13 0;
#X connect 13 0 9 0;
#X coords 0 -1 1 1 100 250 1 100 100;
#X restore 1187 242 pd master;
#X obj 1179 525 dac~;
#X obj 1247 213 r volMaster;
#X obj 617 137 bng 15 250 50 0 empty empty empty 17 7 0 10 -262144
-1 -1;
#N canvas 128 266 686 394 carregar_samples_padroes 0;
#X msg 227 166 read -resize ./samples/sample2.wav sample2;
#X msg 238 138 read -resize ./samples/sample1.wav sample1;
#X msg 213 195 read -resize ./samples/sample3.wav sample3;
#X msg 199 223 read -resize ./samples/sample4.wav sample4;
#X msg 183 248 read -resize ./samples/sample5.wav sample5;
#X msg 164 275 read -resize ./samples/sample6.wav sample6;
#X obj 237 107 bng 15 250 50 0 empty empty empty 17 7 0 10 -262144
-1 -1;
#X obj 235 75 loadbang;
#X obj 208 325 soundfiler;
#X obj 394 95 inlet;
#X obj 383 338 outlet;
#X obj 339 336 bng 15 250 50 0 empty empty empty 17 7 0 10 -262144
-1 -1;
#X obj 370 311 del 500;
#X msg 572 262 \; pd dsp 1;
#X connect 0 0 8 0;
#X connect 1 0 8 0;
#X connect 2 0 8 0;
#X connect 3 0 8 0;
#X connect 4 0 8 0;
#X connect 5 0 8 0;
#X connect 6 0 1 0;
#X connect 6 0 0 0;
#X connect 6 0 2 0;
#X connect 6 0 3 0;
#X connect 6 0 4 0;
#X connect 6 0 5 0;
#X connect 6 0 12 0;
#X connect 7 0 6 0;
#X connect 9 0 6 0;
#X connect 11 0 10 0;
#X connect 12 0 11 0;
#X connect 12 0 13 0;
#X restore 639 139 pd carregar_samples_padroes;
#N canvas 0 22 450 278 (subpatch) 0;
#X array masterout 100 float 1;
#A 0 0 0 0 0 0 0 0 0 0 0 0 0 0 0 0 0 0 0 0 0 0 0 0 0 0 0 0 0 0 0 0
0 0 0 0 0 0 0 0 0 0 0 0 0 0 0 0 0 0 0 0 0 0 0 0 0 0 0 0 0 0 0 0 0 0
0 0 0 0 0 0 0 0 0 0 0 0 0 0 0 0 0 0 0 0 0 0 0 0 0 0 0 0 0 0 0 0 0 0
0;
#X coords 0 1 99 -1 200 140 1;
#X restore 1146 610 graph;
#N canvas 139 24 950 647 sampler 0;
#X obj 365 550 *~;
#X obj 106 104 tgl 30 0 empty empty empty 17 7 0 10 -262144 -1 -1 0
127;
#X obj 306 149 vsl 20 128 0 1 0 1 empty empty vol. 0 -9 0 10 -262144
-1 -1 0 1;
#X obj 115 208 vradio 30 1 1 3 empty empty Modos_de_Funcionamento 0
-12 0 10 -262144 -1 -1 1;
#X text 158 212 Disparo;
#X obj 89 700 *~;
#X obj 679 728 *~;
#X obj 370 652 *~;
#X obj 381 627 tgl 15 0 empty empty empty 17 7 0 10 -262144 -1 -1 1
1;
#X obj 697 704 tgl 15 0 empty empty empty 17 7 0 10 -262144 -1 -1 0
1;
#X obj 107 675 tgl 15 0 empty empty empty 17 7 0 10 -262144 -1 -1 0
1;
#X obj 718 431 select 2;
#X msg 413 600 0;
#X msg 381 600 1;
#X msg 140 646 0;
#X msg 107 646 1;
#X msg 749 457 0;
#X msg 718 456 1;
#X obj 361 739 *~;
#X obj 679 527 bng 15 250 50 0 empty empty empty 17 7 0 10 -262144
-1 -1;
#X obj 679 503 spigot;
#X obj 718 483 tgl 15 0 empty empty empty 17 7 0 10 -262144 -1 -1 0
1;
#X obj 679 620 *~;
#X obj 697 650 select 2;
#X msg 729 678 0;
#X msg 697 678 1;
#X obj 634 440 t b b;
#X obj 107 622 select 0;
#X obj 381 574 select 1;
#X obj 444 105 soundfiler;
#X obj 444 53 openpanel;
#X obj 269 104 bng 15 250 50 0 empty empty carregar 17 7 0 10 -262144
-1 -1;
#X obj 88 525 spigot;
#X obj 126 502 tgl 15 0 empty empty empty 17 7 0 10 -262144 -1 -1 0
1;
#X obj 126 458 select 0;
#X msg 126 479 1;
#X msg 159 479 0;
#X obj 365 483 tabplay~;
#X obj 88 581 tabplay~;
#X obj 679 551 tabplay~;
#X obj 500 322 loadbang;
#X floatatom 306 285 5 0 0 0 - - -, f 5;
#X obj 269 122 bng 15 250 50 0 empty empty normalizar 17 7 0 10 -262144
-1 -1;
#X obj 14 307 select 0;
#X obj 15 331 bng 15 250 50 0 empty empty empty 17 7 0 10 -262144 -1
-1;
#X obj 68 331 bng 15 250 50 0 empty empty empty 17 7 0 10 -262144 -1
-1;
#X obj 697 593 adsr 1 1 0 100 100;
#X text 158 245 Gate;
#X text 158 277 Gate em Loop;
#X obj 382 520 adsr 1 1 0 100 100;
#X obj 189 322 hsl 128 17 0 1 0 1 empty empty empty -2 -8 0 10 -262144
-1 -1 12700 1;
#X text 118 320 send_fx;
#X obj 405 763 *~;
#X msg 426 159 \; sample3 normalize;
#X msg 444 79 read -resize \$1 sample3;
#X msg 500 350 set sample3;
#X obj 95 39 r botao3;
#X obj 306 786 s~ m3;
#X obj 405 788 s~ s3;
#X connect 0 0 7 0;
#X connect 1 0 43 0;
#X connect 1 0 46 0;
#X connect 1 0 49 0;
#X connect 2 0 18 1;
#X connect 2 0 41 0;
#X connect 3 0 11 0;
#X connect 3 0 23 0;
#X connect 3 0 27 0;
#X connect 3 0 28 0;
#X connect 3 0 34 0;
#X connect 5 0 18 0;
#X connect 6 0 18 0;
#X connect 7 0 18 0;
#X connect 8 0 7 1;
#X connect 9 0 6 1;
#X connect 10 0 5 1;
#X connect 11 0 17 0;
#X connect 11 1 16 0;
#X connect 12 0 8 0;
#X connect 13 0 8 0;
#X connect 14 0 10 0;
#X connect 15 0 10 0;
#X connect 16 0 21 0;
#X connect 17 0 21 0;
#X connect 18 0 52 0;
#X connect 18 0 57 0;
#X connect 19 0 39 0;
#X connect 20 0 19 0;
#X connect 21 0 20 1;
#X connect 22 0 6 0;
#X connect 23 0 25 0;
#X connect 23 1 24 0;
#X connect 24 0 9 0;
#X connect 25 0 9 0;
#X connect 26 0 20 0;
#X connect 26 1 17 0;
#X connect 27 0 15 0;
#X connect 27 1 14 0;
#X connect 28 0 13 0;
#X connect 28 1 12 0;
#X connect 30 0 54 0;
#X connect 31 0 30 0;
#X connect 32 0 38 0;
#X connect 33 0 32 1;
#X connect 34 0 35 0;
#X connect 34 1 36 0;
#X connect 35 0 33 0;
#X connect 36 0 33 0;
#X connect 37 0 0 0;
#X connect 38 0 5 0;
#X connect 39 0 22 0;
#X connect 39 1 20 0;
#X connect 40 0 55 0;
#X connect 42 0 53 0;
#X connect 43 0 44 0;
#X connect 43 1 45 0;
#X connect 44 0 16 0;
#X connect 45 0 37 0;
#X connect 45 0 32 0;
#X connect 45 0 26 0;
#X connect 46 0 22 1;
#X connect 49 0 0 1;
#X connect 50 0 52 1;
#X connect 52 0 58 0;
#X connect 54 0 29 0;
#X connect 55 0 38 0;
#X connect 55 0 37 0;
#X connect 55 0 39 0;
#X connect 56 0 1 0;
#X coords 0 -1 1 1 250 250 2 100 100;
#X restore 563 197 pd sampler;
#N canvas 0 50 450 250 (subpatch) 0;
#X array sample2 11797 float 0;
#X coords 0 1 11796 -1 170 30 1 0 0;
#X restore 317 250 graph;
#N canvas 82 187 978 538 delay 0;
#X obj -139 51 inlet~;
#X obj 23 482 outlet~;
#X obj 433 74 inlet;
#X obj -96 360 sig~;
#X obj -96 381 vd~ delay1;
#X floatatom 139 272 5 0 0 0 - - -, f 5;
#X obj -139 78 delwrite~ delay1 1000;
#X obj 218 136 vsl 30 128 0 1 0 1 empty empty feedback 0 -9 0 10 -262144
-1 -1 6000 1;
#X obj -96 414 *~ 0;
#X obj 139 135 vsl 30 128 0 1000 0 1 empty empty tempo_(ms) 0 -9 0
10 -262144 -1 -1 6200 1;
#X floatatom 218 272 5 0 0 0 - - -, f 5;
#X obj 387 74 inlet;
#X floatatom -96 342 5 0 0 0 - - -, f 5;
#X obj -96 321 line;
#X msg -96 299 \$1 1000;
#X obj 368 236 loadbang;
#X connect 0 0 6 0;
#X connect 2 0 7 0;
#X connect 3 0 4 0;
#X connect 4 0 8 0;
#X connect 5 0 14 0;
#X connect 7 0 10 0;
#X connect 8 0 6 0;
#X connect 8 0 1 0;
#X connect 9 0 5 0;
#X connect 10 0 8 1;
#X connect 11 0 9 0;
#X connect 12 0 3 0;
#X connect 13 0 12 0;
#X connect 14 0 13 0;
#X connect 15 0 9 0;
#X connect 15 0 7 0;
#X coords 0 -1 1 1 200 200 1 100 100;
#X restore 883 224 pd delay;
#N canvas 82 187 978 538 ganho 0;
#X obj -139 51 inlet~;
#X obj 23 482 outlet~;
#X obj 433 74 inlet;
#X obj 116 131 vsl 30 128 0 10 0 1 empty empty ganho 0 -9 0 10 -262144
-1 -1 1400 1;
#X obj -96 414 *~ 0;
#X floatatom 116 267 5 0 0 0 - - -, f 5;
#X obj 368 236 loadbang;
#X connect 0 0 4 0;
#X connect 2 0 3 0;
#X connect 3 0 5 0;
#X connect 4 0 1 0;
#X connect 5 0 4 1;
#X connect 6 0 3 0;
#X coords 0 -1 1 1 60 200 1 100 100;
#X restore 886 461 pd ganho;
#X obj 897 433 r ganho;
#N canvas 0 23 450 300 sends 0;
#X obj 62 67 r~ s1;
#X obj 112 67 r~ s2;
#X obj 158 66 r~ s3;
#X obj 204 65 r~ s4;
#X obj 248 65 r~ s5;
#X obj 164 142 outlet~;
#X obj 291 66 r~ s6;
#X obj 336 66 r~ st;
#X connect 0 0 5 0;
#X connect 1 0 5 0;
#X connect 2 0 5 0;
#X connect 3 0 5 0;
#X connect 4 0 5 0;
#X connect 6 0 5 0;
#X connect 7 0 5 0;
#X restore 883 201 pd sends;
#X obj 420 39 * 1.2;
#N canvas 77 85 450 300 normalizar_todos 0;
#X msg 230 64 \; sample1 normalize;
#X msg 230 99 \; sample2 normalize;
#X msg 230 132 \; sample3 normalize;
#X msg 230 167 \; sample4 normalize;
#X msg 230 200 \; sample5 normalize;
#X msg 230 235 \; sample6 normalize;
#X obj 157 79 bng 15 250 50 0 empty empty empty 17 7 0 10 -262144 -1
-1;
#X obj 107 33 inlet;
#X connect 6 0 0 0;
#X connect 6 0 1 0;
#X connect 6 0 2 0;
#X connect 6 0 3 0;
#X connect 6 0 4 0;
#X connect 6 0 5 0;
#X connect 7 0 6 0;
#X restore 639 161 pd normalizar_todos;
#X obj 616 162 bng 15 250 50 0 empty empty empty 17 7 0 10 -262144
-1 -1;
#X obj 595 95 s delFeedback;
#X obj 510 97 s delTime;
#N canvas 425 185 450 300 masters 0;
#X obj 52 84 r~ m1;
#X obj 90 84 r~ m2;
#X obj 127 84 r~ m3;
#X obj 165 84 r~ m4;
#X obj 202 85 r~ m5;
#X obj 231 183 outlet~;
#X obj 292 85 r~ master;
#X obj 239 86 r~ m6;
#X obj 293 43 r~ mt;
#X connect 0 0 5 0;
#X connect 1 0 5 0;
#X connect 2 0 5 0;
#X connect 3 0 5 0;
#X connect 4 0 5 0;
#X connect 6 0 5 0;
#X connect 7 0 5 0;
#X connect 8 0 5 0;
#X restore 1176 213 pd masters;
#N canvas 139 24 950 647 sampler 0;
#X obj 365 550 *~;
#X obj 106 104 tgl 30 0 empty empty empty 17 7 0 10 -262144 -1 -1 0
127;
#X obj 306 149 vsl 20 128 0 1 0 1 empty empty vol. 0 -9 0 10 -262144
-1 -1 12700 1;
#X obj 115 208 vradio 30 1 1 3 empty empty Modos_de_Funcionamento 0
-12 0 10 -262144 -1 -1 1;
#X text 158 212 Disparo;
#X obj 89 700 *~;
#X obj 679 728 *~;
#X obj 363 652 *~;
#X obj 381 627 tgl 15 0 empty empty empty 17 7 0 10 -262144 -1 -1 1
1;
#X obj 697 704 tgl 15 0 empty empty empty 17 7 0 10 -262144 -1 -1 0
1;
#X obj 107 675 tgl 15 0 empty empty empty 17 7 0 10 -262144 -1 -1 0
1;
#X obj 718 431 select 2;
#X msg 413 600 0;
#X msg 381 600 1;
#X msg 140 646 0;
#X msg 107 646 1;
#X msg 749 457 0;
#X msg 718 456 1;
#X obj 361 739 *~;
#X obj 679 527 bng 15 250 50 0 empty empty empty 17 7 0 10 -262144
-1 -1;
#X obj 679 503 spigot;
#X obj 718 483 tgl 15 0 empty empty empty 17 7 0 10 -262144 -1 -1 0
1;
#X obj 679 620 *~;
#X obj 697 650 select 2;
#X msg 729 678 0;
#X msg 697 678 1;
#X obj 634 440 t b b;
#X obj 107 622 select 0;
#X obj 381 574 select 1;
#X obj 444 105 soundfiler;
#X obj 444 53 openpanel;
#X msg 444 79 read -resize \$1 sample1;
#X obj 269 104 bng 15 250 50 0 empty empty carregar 17 7 0 10 -262144
-1 -1;
#X obj 88 525 spigot;
#X obj 126 502 tgl 15 0 empty empty empty 17 7 0 10 -262144 -1 -1 0
1;
#X obj 126 458 select 0;
#X msg 126 479 1;
#X msg 159 479 0;
#X obj 365 483 tabplay~;
#X obj 88 581 tabplay~;
#X obj 679 551 tabplay~;
#X msg 500 350 set sample1;
#X obj 500 322 loadbang;
#X floatatom 306 285 5 0 0 0 - - -, f 5;
#X msg 426 159 \; sample1 normalize;
#X obj 269 122 bng 15 250 50 0 empty empty normalizar 17 7 0 10 -262144
-1 -1;
#X obj 14 307 select 0;
#X obj 15 331 bng 15 250 50 0 empty empty empty 17 7 0 10 -262144 -1
-1;
#X obj 68 331 bng 15 250 50 0 empty empty empty 17 7 0 10 -262144 -1
-1;
#X obj 697 593 adsr 1 1 0 100 100;
#X text 158 245 Gate;
#X text 158 277 Gate em Loop;
#X obj 382 520 adsr 1 1 0 100 100;
#X obj 306 786 s~ m1;
#X obj 189 322 hsl 128 17 0 1 0 1 empty empty empty -2 -8 0 10 -262144
-1 -1 12700 1;
#X obj 405 788 s~ s1;
#X text 118 320 send_fx;
#X obj 405 763 *~;
#X obj 95 39 r botao1;
#X connect 0 0 7 0;
#X connect 1 0 46 0;
#X connect 1 0 49 0;
#X connect 1 0 52 0;
#X connect 2 0 18 1;
#X connect 2 0 43 0;
#X connect 3 0 11 0;
#X connect 3 0 23 0;
#X connect 3 0 27 0;
#X connect 3 0 28 0;
#X connect 3 0 35 0;
#X connect 5 0 18 0;
#X connect 6 0 18 0;
#X connect 7 0 18 0;
#X connect 8 0 7 1;
#X connect 9 0 6 1;
#X connect 10 0 5 1;
#X connect 11 0 17 0;
#X connect 11 1 16 0;
#X connect 12 0 8 0;
#X connect 13 0 8 0;
#X connect 14 0 10 0;
#X connect 15 0 10 0;
#X connect 16 0 21 0;
#X connect 17 0 21 0;
#X connect 18 0 53 0;
#X connect 18 0 57 0;
#X connect 19 0 40 0;
#X connect 20 0 19 0;
#X connect 21 0 20 1;
#X connect 22 0 6 0;
#X connect 23 0 25 0;
#X connect 23 1 24 0;
#X connect 24 0 9 0;
#X connect 25 0 9 0;
#X connect 26 0 20 0;
#X connect 26 1 17 0;
#X connect 27 0 15 0;
#X connect 27 1 14 0;
#X connect 28 0 13 0;
#X connect 28 1 12 0;
#X connect 30 0 31 0;
#X connect 31 0 29 0;
#X connect 32 0 30 0;
#X connect 33 0 39 0;
#X connect 34 0 33 1;
#X connect 35 0 36 0;
#X connect 35 1 37 0;
#X connect 36 0 34 0;
#X connect 37 0 34 0;
#X connect 38 0 0 0;
#X connect 39 0 5 0;
#X connect 40 0 22 0;
#X connect 40 1 20 0;
#X connect 41 0 39 0;
#X connect 41 0 38 0;
#X connect 41 0 40 0;
#X connect 42 0 41 0;
#X connect 45 0 44 0;
#X connect 46 0 47 0;
#X connect 46 1 48 0;
#X connect 47 0 16 0;
#X connect 48 0 38 0;
#X connect 48 0 33 0;
#X connect 48 0 26 0;
#X connect 49 0 22 1;
#X connect 52 0 0 1;
#X connect 54 0 57 1;
#X connect 57 0 55 0;
#X connect 58 0 1 0;
#X coords 0 -1 1 1 250 250 2 100 100;
#X restore 40 196 pd sampler;
#N canvas 139 24 950 647 sampler 0;
#X obj 365 550 *~;
#X obj 106 104 tgl 30 0 empty empty empty 17 7 0 10 -262144 -1 -1 0
127;
#X obj 306 149 vsl 20 128 0 1 0 1 empty empty vol. 0 -9 0 10 -262144
-1 -1 12700 1;
#X obj 115 208 vradio 30 1 1 3 empty empty Modos_de_Funcionamento 0
-12 0 10 -262144 -1 -1 1;
#X text 158 212 Disparo;
#X obj 89 700 *~;
#X obj 679 728 *~;
#X obj 363 652 *~;
#X obj 381 627 tgl 15 0 empty empty empty 17 7 0 10 -262144 -1 -1 1
1;
#X obj 697 704 tgl 15 0 empty empty empty 17 7 0 10 -262144 -1 -1 0
1;
#X obj 107 675 tgl 15 0 empty empty empty 17 7 0 10 -262144 -1 -1 0
1;
#X obj 718 431 select 2;
#X msg 413 600 0;
#X msg 381 600 1;
#X msg 140 646 0;
#X msg 107 646 1;
#X msg 749 457 0;
#X msg 718 456 1;
#X obj 361 739 *~;
#X obj 679 527 bng 15 250 50 0 empty empty empty 17 7 0 10 -262144
-1 -1;
#X obj 679 503 spigot;
#X obj 718 483 tgl 15 0 empty empty empty 17 7 0 10 -262144 -1 -1 0
1;
#X obj 679 620 *~;
#X obj 697 650 select 2;
#X msg 729 678 0;
#X msg 697 678 1;
#X obj 634 440 t b b;
#X obj 107 622 select 0;
#X obj 381 574 select 1;
#X obj 444 105 soundfiler;
#X obj 444 53 openpanel;
#X obj 269 104 bng 15 250 50 0 empty empty carregar 17 7 0 10 -262144
-1 -1;
#X obj 88 525 spigot;
#X obj 126 502 tgl 15 0 empty empty empty 17 7 0 10 -262144 -1 -1 0
1;
#X obj 126 458 select 0;
#X msg 126 479 1;
#X msg 159 479 0;
#X obj 365 483 tabplay~;
#X obj 88 581 tabplay~;
#X obj 679 551 tabplay~;
#X obj 500 322 loadbang;
#X floatatom 306 285 5 0 0 0 - - -, f 5;
#X obj 269 122 bng 15 250 50 0 empty empty normalizar 17 7 0 10 -262144
-1 -1;
#X obj 14 307 select 0;
#X obj 15 331 bng 15 250 50 0 empty empty empty 17 7 0 10 -262144 -1
-1;
#X obj 68 331 bng 15 250 50 0 empty empty empty 17 7 0 10 -262144 -1
-1;
#X obj 697 593 adsr 1 1 0 100 100;
#X text 158 245 Gate;
#X text 158 277 Gate em Loop;
#X obj 382 520 adsr 1 1 0 100 100;
#X obj 189 322 hsl 128 17 0 1 0 1 empty empty empty -2 -8 0 10 -262144
-1 -1 12700 1;
#X text 118 320 send_fx;
#X obj 405 763 *~;
#X msg 426 159 \; sample2 normalize;
#X msg 444 79 read -resize \$1 sample2;
#X msg 500 350 set sample2;
#X obj 95 39 r botao2;
#X obj 306 786 s~ m2;
#X obj 406 788 s~ s2;
#X connect 0 0 7 0;
#X connect 1 0 43 0;
#X connect 1 0 46 0;
#X connect 1 0 49 0;
#X connect 2 0 18 1;
#X connect 2 0 41 0;
#X connect 3 0 11 0;
#X connect 3 0 23 0;
#X connect 3 0 27 0;
#X connect 3 0 28 0;
#X connect 3 0 34 0;
#X connect 5 0 18 0;
#X connect 6 0 18 0;
#X connect 7 0 18 0;
#X connect 8 0 7 1;
#X connect 9 0 6 1;
#X connect 10 0 5 1;
#X connect 11 0 17 0;
#X connect 11 1 16 0;
#X connect 12 0 8 0;
#X connect 13 0 8 0;
#X connect 14 0 10 0;
#X connect 15 0 10 0;
#X connect 16 0 21 0;
#X connect 17 0 21 0;
#X connect 18 0 52 0;
#X connect 18 0 57 0;
#X connect 19 0 39 0;
#X connect 20 0 19 0;
#X connect 21 0 20 1;
#X connect 22 0 6 0;
#X connect 23 0 25 0;
#X connect 23 1 24 0;
#X connect 24 0 9 0;
#X connect 25 0 9 0;
#X connect 26 0 20 0;
#X connect 26 1 17 0;
#X connect 27 0 15 0;
#X connect 27 1 14 0;
#X connect 28 0 13 0;
#X connect 28 1 12 0;
#X connect 30 0 54 0;
#X connect 31 0 30 0;
#X connect 32 0 38 0;
#X connect 33 0 32 1;
#X connect 34 0 35 0;
#X connect 34 1 36 0;
#X connect 35 0 33 0;
#X connect 36 0 33 0;
#X connect 37 0 0 0;
#X connect 38 0 5 0;
#X connect 39 0 22 0;
#X connect 39 1 20 0;
#X connect 40 0 55 0;
#X connect 42 0 53 0;
#X connect 43 0 44 0;
#X connect 43 1 45 0;
#X connect 44 0 16 0;
#X connect 45 0 37 0;
#X connect 45 0 32 0;
#X connect 45 0 26 0;
#X connect 46 0 22 1;
#X connect 49 0 0 1;
#X connect 50 0 52 1;
#X connect 52 0 58 0;
#X connect 54 0 29 0;
#X connect 55 0 38 0;
#X connect 55 0 37 0;
#X connect 55 0 39 0;
#X connect 56 0 1 0;
#X coords 0 -1 1 1 250 250 2 100 100;
#X restore 303 197 pd sampler;
#N canvas 139 24 950 647 sampler 0;
#X obj 365 550 *~;
#X obj 106 104 tgl 30 0 empty empty empty 17 7 0 10 -262144 -1 -1 0
127;
#X obj 306 149 vsl 20 128 0 1 0 1 empty empty vol. 0 -9 0 10 -262144
-1 -1 12700 1;
#X obj 115 208 vradio 30 1 1 3 empty empty Modos_de_Funcionamento 0
-12 0 10 -262144 -1 -1 0;
#X text 158 212 Disparo;
#X obj 89 700 *~;
#X obj 679 728 *~;
#X obj 363 652 *~;
#X obj 381 627 tgl 15 0 empty empty empty 17 7 0 10 -262144 -1 -1 0
1;
#X obj 697 704 tgl 15 0 empty empty empty 17 7 0 10 -262144 -1 -1 0
1;
#X obj 107 675 tgl 15 0 empty empty empty 17 7 0 10 -262144 -1 -1 1
1;
#X obj 718 431 select 2;
#X msg 413 600 0;
#X msg 381 600 1;
#X msg 140 646 0;
#X msg 107 646 1;
#X msg 749 457 0;
#X msg 718 456 1;
#X obj 361 739 *~;
#X obj 679 527 bng 15 250 50 0 empty empty empty 17 7 0 10 -262144
-1 -1;
#X obj 679 503 spigot;
#X obj 718 483 tgl 15 0 empty empty empty 17 7 0 10 -262144 -1 -1 0
1;
#X obj 679 620 *~;
#X obj 697 650 select 2;
#X msg 729 678 0;
#X msg 697 678 1;
#X obj 634 440 t b b;
#X obj 107 622 select 0;
#X obj 381 574 select 1;
#X obj 444 105 soundfiler;
#X obj 444 53 openpanel;
#X obj 269 104 bng 15 250 50 0 empty empty carregar 17 7 0 10 -262144
-1 -1;
#X obj 88 525 spigot;
#X obj 126 502 tgl 15 0 empty empty empty 17 7 0 10 -262144 -1 -1 1
1;
#X obj 126 458 select 0;
#X msg 126 479 1;
#X msg 159 479 0;
#X obj 365 483 tabplay~;
#X obj 88 581 tabplay~;
#X obj 679 551 tabplay~;
#X obj 500 322 loadbang;
#X floatatom 306 285 5 0 0 0 - - -, f 5;
#X obj 269 122 bng 15 250 50 0 empty empty normalizar 17 7 0 10 -262144
-1 -1;
#X obj 14 307 select 0;
#X obj 15 331 bng 15 250 50 0 empty empty empty 17 7 0 10 -262144 -1
-1;
#X obj 68 331 bng 15 250 50 0 empty empty empty 17 7 0 10 -262144 -1
-1;
#X obj 697 593 adsr 1 1 0 100 100;
#X text 158 245 Gate;
#X text 158 277 Gate em Loop;
#X obj 382 520 adsr 1 1 0 100 100;
#X obj 189 322 hsl 128 17 0 1 0 1 empty empty empty -2 -8 0 10 -262144
-1 -1 12700 1;
#X text 118 320 send_fx;
#X obj 405 763 *~;
#X msg 444 79 read -resize \$1 sample6;
#X obj 95 39 r botao6;
#X obj 306 786 s~ m6;
#X obj 405 788 s~ s6;
#X msg 426 159 \; sample6 normalize;
#X msg 500 350 set sample6;
#X connect 0 0 7 0;
#X connect 1 0 43 0;
#X connect 1 0 46 0;
#X connect 1 0 49 0;
#X connect 2 0 18 1;
#X connect 2 0 41 0;
#X connect 3 0 11 0;
#X connect 3 0 23 0;
#X connect 3 0 27 0;
#X connect 3 0 28 0;
#X connect 3 0 34 0;
#X connect 5 0 18 0;
#X connect 6 0 18 0;
#X connect 7 0 18 0;
#X connect 8 0 7 1;
#X connect 9 0 6 1;
#X connect 10 0 5 1;
#X connect 11 0 17 0;
#X connect 11 1 16 0;
#X connect 12 0 8 0;
#X connect 13 0 8 0;
#X connect 14 0 10 0;
#X connect 15 0 10 0;
#X connect 16 0 21 0;
#X connect 17 0 21 0;
#X connect 18 0 52 0;
#X connect 18 0 55 0;
#X connect 19 0 39 0;
#X connect 20 0 19 0;
#X connect 21 0 20 1;
#X connect 22 0 6 0;
#X connect 23 0 25 0;
#X connect 23 1 24 0;
#X connect 24 0 9 0;
#X connect 25 0 9 0;
#X connect 26 0 20 0;
#X connect 26 1 17 0;
#X connect 27 0 15 0;
#X connect 27 1 14 0;
#X connect 28 0 13 0;
#X connect 28 1 12 0;
#X connect 30 0 53 0;
#X connect 31 0 30 0;
#X connect 32 0 38 0;
#X connect 33 0 32 1;
#X connect 34 0 35 0;
#X connect 34 1 36 0;
#X connect 35 0 33 0;
#X connect 36 0 33 0;
#X connect 37 0 0 0;
#X connect 38 0 5 0;
#X connect 39 0 22 0;
#X connect 39 1 20 0;
#X connect 40 0 58 0;
#X connect 42 0 57 0;
#X connect 43 0 44 0;
#X connect 43 1 45 0;
#X connect 44 0 16 0;
#X connect 45 0 37 0;
#X connect 45 0 32 0;
#X connect 45 0 26 0;
#X connect 46 0 22 1;
#X connect 49 0 0 1;
#X connect 50 0 52 1;
#X connect 52 0 56 0;
#X connect 53 0 29 0;
#X connect 54 0 1 0;
#X connect 58 0 38 0;
#X connect 58 0 37 0;
#X connect 58 0 39 0;
#X coords 0 -1 1 1 250 250 2 100 100;
#X restore 563 459 pd sampler;
#N canvas 139 24 950 647 sampler 0;
#X obj 365 550 *~;
#X obj 106 104 tgl 30 0 empty empty empty 17 7 0 10 -262144 -1 -1 0
127;
#X obj 306 149 vsl 20 128 0 1 0 1 empty empty vol. 0 -9 0 10 -262144
-1 -1 12700 1;
#X obj 115 208 vradio 30 1 1 3 empty empty Modos_de_Funcionamento 0
-12 0 10 -262144 -1 -1 1;
#X text 158 212 Disparo;
#X obj 89 700 *~;
#X obj 679 728 *~;
#X obj 363 652 *~;
#X obj 381 627 tgl 15 0 empty empty empty 17 7 0 10 -262144 -1 -1 1
1;
#X obj 697 704 tgl 15 0 empty empty empty 17 7 0 10 -262144 -1 -1 0
1;
#X obj 107 675 tgl 15 0 empty empty empty 17 7 0 10 -262144 -1 -1 0
1;
#X obj 718 431 select 2;
#X msg 413 600 0;
#X msg 381 600 1;
#X msg 140 646 0;
#X msg 107 646 1;
#X msg 749 457 0;
#X msg 718 456 1;
#X obj 361 739 *~;
#X obj 679 527 bng 15 250 50 0 empty empty empty 17 7 0 10 -262144
-1 -1;
#X obj 679 503 spigot;
#X obj 718 483 tgl 15 0 empty empty empty 17 7 0 10 -262144 -1 -1 0
1;
#X obj 679 620 *~;
#X obj 697 650 select 2;
#X msg 729 678 0;
#X msg 697 678 1;
#X obj 634 440 t b b;
#X obj 107 622 select 0;
#X obj 381 574 select 1;
#X obj 444 105 soundfiler;
#X obj 444 53 openpanel;
#X obj 269 104 bng 15 250 50 0 empty empty carregar 17 7 0 10 -262144
-1 -1;
#X obj 88 525 spigot;
#X obj 126 502 tgl 15 0 empty empty empty 17 7 0 10 -262144 -1 -1 0
1;
#X obj 126 458 select 0;
#X msg 126 479 1;
#X msg 159 479 0;
#X obj 365 483 tabplay~;
#X obj 88 581 tabplay~;
#X obj 679 551 tabplay~;
#X obj 500 322 loadbang;
#X floatatom 306 285 5 0 0 0 - - -, f 5;
#X obj 269 122 bng 15 250 50 0 empty empty normalizar 17 7 0 10 -262144
-1 -1;
#X obj 14 307 select 0;
#X obj 15 331 bng 15 250 50 0 empty empty empty 17 7 0 10 -262144 -1
-1;
#X obj 68 331 bng 15 250 50 0 empty empty empty 17 7 0 10 -262144 -1
-1;
#X obj 697 593 adsr 1 1 0 100 100;
#X text 158 245 Gate;
#X text 158 277 Gate em Loop;
#X obj 382 520 adsr 1 1 0 100 100;
#X obj 189 322 hsl 128 17 0 1 0 1 empty empty empty -2 -8 0 10 -262144
-1 -1 12700 1;
#X text 118 320 send_fx;
#X obj 405 763 *~;
#X obj 95 40 r botao4;
#X msg 444 79 read -resize \$1 sample4;
#X msg 426 159 \; sample4 normalize;
#X obj 306 786 s~ m4;
#X obj 405 788 s~ s4;
#X msg 500 350 set sample4;
#X connect 0 0 7 0;
#X connect 1 0 43 0;
#X connect 1 0 46 0;
#X connect 1 0 49 0;
#X connect 2 0 18 1;
#X connect 2 0 41 0;
#X connect 3 0 11 0;
#X connect 3 0 23 0;
#X connect 3 0 27 0;
#X connect 3 0 28 0;
#X connect 3 0 34 0;
#X connect 5 0 18 0;
#X connect 6 0 18 0;
#X connect 7 0 18 0;
#X connect 8 0 7 1;
#X connect 9 0 6 1;
#X connect 10 0 5 1;
#X connect 11 0 17 0;
#X connect 11 1 16 0;
#X connect 12 0 8 0;
#X connect 13 0 8 0;
#X connect 14 0 10 0;
#X connect 15 0 10 0;
#X connect 16 0 21 0;
#X connect 17 0 21 0;
#X connect 18 0 52 0;
#X connect 18 0 56 0;
#X connect 19 0 39 0;
#X connect 20 0 19 0;
#X connect 21 0 20 1;
#X connect 22 0 6 0;
#X connect 23 0 25 0;
#X connect 23 1 24 0;
#X connect 24 0 9 0;
#X connect 25 0 9 0;
#X connect 26 0 20 0;
#X connect 26 1 17 0;
#X connect 27 0 15 0;
#X connect 27 1 14 0;
#X connect 28 0 13 0;
#X connect 28 1 12 0;
#X connect 30 0 54 0;
#X connect 31 0 30 0;
#X connect 32 0 38 0;
#X connect 33 0 32 1;
#X connect 34 0 35 0;
#X connect 34 1 36 0;
#X connect 35 0 33 0;
#X connect 36 0 33 0;
#X connect 37 0 0 0;
#X connect 38 0 5 0;
#X connect 39 0 22 0;
#X connect 39 1 20 0;
#X connect 40 0 58 0;
#X connect 42 0 55 0;
#X connect 43 0 44 0;
#X connect 43 1 45 0;
#X connect 44 0 16 0;
#X connect 45 0 37 0;
#X connect 45 0 32 0;
#X connect 45 0 26 0;
#X connect 46 0 22 1;
#X connect 49 0 0 1;
#X connect 50 0 52 1;
#X connect 52 0 57 0;
#X connect 53 0 1 0;
#X connect 54 0 29 0;
#X connect 58 0 38 0;
#X connect 58 0 37 0;
#X connect 58 0 39 0;
#X coords 0 -1 1 1 250 250 2 100 100;
#X restore 40 458 pd sampler;
#N canvas 139 24 950 647 sampler 0;
#X obj 365 550 *~;
#X obj 106 104 tgl 30 0 empty empty empty 17 7 0 10 -262144 -1 -1 0
127;
#X obj 306 149 vsl 20 128 0 1 0 1 empty empty vol. 0 -9 0 10 -262144
-1 -1 3100 1;
#X obj 115 208 vradio 30 1 1 3 empty empty Modos_de_Funcionamento 0
-12 0 10 -262144 -1 -1 1;
#X text 158 212 Disparo;
#X obj 89 700 *~;
#X obj 679 728 *~;
#X obj 363 652 *~;
#X obj 381 627 tgl 15 0 empty empty empty 17 7 0 10 -262144 -1 -1 1
1;
#X obj 697 704 tgl 15 0 empty empty empty 17 7 0 10 -262144 -1 -1 0
1;
#X obj 107 675 tgl 15 0 empty empty empty 17 7 0 10 -262144 -1 -1 0
1;
#X obj 718 431 select 2;
#X msg 413 600 0;
#X msg 381 600 1;
#X msg 140 646 0;
#X msg 107 646 1;
#X msg 749 457 0;
#X msg 718 456 1;
#X obj 361 739 *~;
#X obj 679 527 bng 15 250 50 0 empty empty empty 17 7 0 10 -262144
-1 -1;
#X obj 679 503 spigot;
#X obj 718 483 tgl 15 0 empty empty empty 17 7 0 10 -262144 -1 -1 0
1;
#X obj 679 620 *~;
#X obj 697 650 select 2;
#X msg 729 678 0;
#X msg 697 678 1;
#X obj 634 440 t b b;
#X obj 107 622 select 0;
#X obj 381 574 select 1;
#X obj 444 105 soundfiler;
#X obj 444 53 openpanel;
#X obj 269 104 bng 15 250 50 0 empty empty carregar 17 7 0 10 -262144
-1 -1;
#X obj 88 525 spigot;
#X obj 126 502 tgl 15 0 empty empty empty 17 7 0 10 -262144 -1 -1 0
1;
#X obj 126 458 select 0;
#X msg 126 479 1;
#X msg 159 479 0;
#X obj 365 483 tabplay~;
#X obj 88 581 tabplay~;
#X obj 679 551 tabplay~;
#X obj 500 322 loadbang;
#X floatatom 306 285 5 0 0 0 - - -, f 5;
#X obj 269 122 bng 15 250 50 0 empty empty normalizar 17 7 0 10 -262144
-1 -1;
#X obj 14 307 select 0;
#X obj 15 331 bng 15 250 50 0 empty empty empty 17 7 0 10 -262144 -1
-1;
#X obj 68 331 bng 15 250 50 0 empty empty empty 17 7 0 10 -262144 -1
-1;
#X obj 697 593 adsr 1 1 0 100 100;
#X text 158 245 Gate;
#X text 158 277 Gate em Loop;
#X obj 382 520 adsr 1 1 0 100 100;
#X obj 189 322 hsl 128 17 0 1 0 1 empty empty empty -2 -8 0 10 -262144
-1 -1 12700 1;
#X text 118 320 send_fx;
#X obj 405 763 *~;
#X obj 95 39 r botao5;
#X msg 426 159 \; sample5 normalize;
#X msg 445 79 read -resize \$1 sample5;
#X obj 306 786 s~ m5;
#X obj 406 788 s~ s5;
#X msg 500 350 set sample5;
#X connect 0 0 7 0;
#X connect 1 0 43 0;
#X connect 1 0 46 0;
#X connect 1 0 49 0;
#X connect 2 0 18 1;
#X connect 2 0 41 0;
#X connect 3 0 11 0;
#X connect 3 0 23 0;
#X connect 3 0 27 0;
#X connect 3 0 28 0;
#X connect 3 0 34 0;
#X connect 5 0 18 0;
#X connect 6 0 18 0;
#X connect 7 0 18 0;
#X connect 8 0 7 1;
#X connect 9 0 6 1;
#X connect 10 0 5 1;
#X connect 11 0 17 0;
#X connect 11 1 16 0;
#X connect 12 0 8 0;
#X connect 13 0 8 0;
#X connect 14 0 10 0;
#X connect 15 0 10 0;
#X connect 16 0 21 0;
#X connect 17 0 21 0;
#X connect 18 0 52 0;
#X connect 18 0 56 0;
#X connect 19 0 39 0;
#X connect 20 0 19 0;
#X connect 21 0 20 1;
#X connect 22 0 6 0;
#X connect 23 0 25 0;
#X connect 23 1 24 0;
#X connect 24 0 9 0;
#X connect 25 0 9 0;
#X connect 26 0 20 0;
#X connect 26 1 17 0;
#X connect 27 0 15 0;
#X connect 27 1 14 0;
#X connect 28 0 13 0;
#X connect 28 1 12 0;
#X connect 30 0 55 0;
#X connect 31 0 30 0;
#X connect 32 0 38 0;
#X connect 33 0 32 1;
#X connect 34 0 35 0;
#X connect 34 1 36 0;
#X connect 35 0 33 0;
#X connect 36 0 33 0;
#X connect 37 0 0 0;
#X connect 38 0 5 0;
#X connect 39 0 22 0;
#X connect 39 1 20 0;
#X connect 40 0 58 0;
#X connect 42 0 54 0;
#X connect 43 0 44 0;
#X connect 43 1 45 0;
#X connect 44 0 16 0;
#X connect 45 0 37 0;
#X connect 45 0 32 0;
#X connect 45 0 26 0;
#X connect 46 0 22 1;
#X connect 49 0 0 1;
#X connect 50 0 52 1;
#X connect 52 0 57 0;
#X connect 53 0 1 0;
#X connect 55 0 29 0;
#X connect 58 0 38 0;
#X connect 58 0 37 0;
#X connect 58 0 39 0;
#X coords 0 -1 1 1 250 250 2 100 100;
#X restore 303 459 pd sampler;
#N canvas 0 50 450 250 (subpatch) 0;
#X array sample3 205348 float 0;
#X coords 0 1 205347 -1 170 30 1 0 0;
#X restore 575 249 graph;
#N canvas 0 50 450 250 (subpatch) 0;
#X array sample1 69423 float 0;
#X coords 0 1 69422 -1 170 30 1 0 0;
#X restore 59 248 graph;
#N canvas 0 50 450 250 (subpatch) 0;
#X array sample5 42435 float 0;
#X coords 0 1 42434 -1 170 30 1 0 0;
#X restore 317 514 graph;
#N canvas 0 50 450 250 (subpatch) 0;
#X array sample6 13242 float 0;
#X coords 0 1 13241 -1 170 30 1 0 0;
#X restore 578 514 graph;
#N canvas 0 50 450 250 (subpatch) 0;
#X array sample4 4702 float 0;
#X coords 0 1 4701 -1 170 30 1 0 0;
#X restore 56 513 graph;
#N canvas 220 224 664 311 entradasMidi 0;
#X obj 101 101 cnv 15 350 140 empty empty Entradas_MIDI 20 12 0 14
-228922 -66577 0;
#N canvas 378 158 864 508 entradaNotasMidi 0;
#X obj 147 26 notein;
#X obj 147 75 pack 0 0 0;
#X obj 147 49 poly 6 6;
#X obj 111 180 route;
#X obj 153 181 route;
#X obj 196 181 route;
#X obj 238 181 route;
#X obj 282 181 route;
#X obj 323 181 route;
#X obj 147 107 list split 1;
#X obj 111 204 tgl 15 0 empty empty empty 17 7 0 10 -262144 -1 -1 0
127;
#X obj 153 202 tgl 15 0 empty empty empty 17 7 0 10 -262144 -1 -1 0
127;
#X obj 196 203 tgl 15 0 empty empty empty 17 7 0 10 -262144 -1 -1 0
127;
#X obj 238 204 tgl 15 0 empty empty empty 17 7 0 10 -262144 -1 -1 0
127;
#X obj 284 202 tgl 15 0 empty empty empty 17 7 0 10 -262144 -1 -1 0
127;
#X obj 325 204 tgl 15 0 empty empty empty 17 7 0 10 -262144 -1 -1 0
127;
#X obj 440 287 list;
#X obj 321 122 unpack 0 0 0 0 0 0;
#X obj 260 71 inlet;
#X obj 191 277 outlet;
#X obj 85 277 outlet;
#X obj 139 277 outlet;
#X obj 348 276 outlet;
#X obj 242 276 outlet;
#X obj 296 276 outlet;
#X connect 0 0 2 0;
#X connect 0 1 2 1;
#X connect 1 0 9 0;
#X connect 2 0 1 0;
#X connect 2 1 1 1;
#X connect 2 2 1 2;
#X connect 3 0 10 0;
#X connect 4 0 11 0;
#X connect 5 0 12 0;
#X connect 6 0 13 0;
#X connect 7 0 14 0;
#X connect 8 0 15 0;
#X connect 9 1 3 0;
#X connect 9 1 4 0;
#X connect 9 1 5 0;
#X connect 9 1 6 0;
#X connect 9 1 7 0;
#X connect 9 1 8 0;
#X connect 10 0 20 0;
#X connect 11 0 21 0;
#X connect 12 0 19 0;
#X connect 13 0 23 0;
#X connect 14 0 24 0;
#X connect 15 0 22 0;
#X connect 17 0 3 1;
#X connect 17 1 4 1;
#X connect 17 2 5 1;
#X connect 17 3 6 1;
#X connect 17 4 7 1;
#X connect 17 5 8 1;
#X connect 18 0 17 0;
#X coords 0 508 1 507 500 500 0;
#X restore 109 64 pd entradaNotasMidi;
#X obj 197 9 loadbang;
#N canvas 431 300 450 300 entradaCCMidi 0;
#X obj 86 14 ctlin;
#X obj 87 68 pack;
#X obj 169 152 route;
#X obj 71 153 route;
#X obj 121 152 route;
#X obj 195 61 loadbang;
#X floatatom 71 182 5 0 0 0 - - -, f 5;
#X floatatom 169 181 5 0 0 0 - - -, f 5;
#X floatatom 121 181 5 0 0 0 - - -, f 5;
#X obj 122 213 outlet;
#X obj 171 212 outlet;
#X obj 71 213 outlet;
#X obj 178 35 inlet;
#X obj 37 44 f;
#X obj 116 40 t b f;
#X obj 317 152 route;
#X obj 219 153 route;
#X obj 269 152 route;
#X floatatom 219 182 5 0 0 0 - - -, f 5;
#X floatatom 317 181 5 0 0 0 - - -, f 5;
#X floatatom 269 181 5 0 0 0 - - -, f 5;
#X obj 270 213 outlet;
#X obj 319 212 outlet;
#X obj 219 213 outlet;
#X obj 194 110 unpack 0 0 0 0 0 0;
#X msg 195 85 16 17 18 19 20 21;
#X connect 0 0 14 0;
#X connect 0 1 13 1;
#X connect 1 0 3 0;
#X connect 1 0 4 0;
#X connect 1 0 2 0;
#X connect 1 0 16 0;
#X connect 1 0 17 0;
#X connect 1 0 15 0;
#X connect 2 0 7 0;
#X connect 3 0 6 0;
#X connect 4 0 8 0;
#X connect 5 0 25 0;
#X connect 6 0 11 0;
#X connect 7 0 10 0;
#X connect 8 0 9 0;
#X connect 12 0 25 0;
#X connect 13 0 1 0;
#X connect 14 0 13 0;
#X connect 14 1 1 1;
#X connect 15 0 19 0;
#X connect 16 0 18 0;
#X connect 17 0 20 0;
#X connect 18 0 23 0;
#X connect 19 0 22 0;
#X connect 20 0 21 0;
#X connect 24 0 3 1;
#X connect 24 1 4 1;
#X connect 24 2 2 1;
#X connect 24 3 16 1;
#X connect 24 4 17 1;
#X connect 24 5 15 1;
#X connect 25 0 24 0;
#X restore 279 70 pd entradaCCMidi;
#X text 28 74 notas MIDI;
#X msg 121 39 40 41 42 36 37 38;
#X obj 110 170 tgl 15 0 empty empty empty 17 7 0 10 -262144 -1 -1 0
127;
#X obj 131 170 tgl 15 0 empty empty empty 17 7 0 10 -262144 -1 -1 0
127;
#X obj 154 170 tgl 15 0 empty empty empty 17 7 0 10 -262144 -1 -1 0
127;
#X obj 176 170 tgl 15 0 empty empty empty 17 7 0 10 -262144 -1 -1 0
127;
#X obj 197 170 tgl 15 0 empty empty empty 17 7 0 10 -262144 -1 -1 0
127;
#X obj 218 170 tgl 15 0 empty empty empty 17 7 0 10 -262144 -1 -1 0
127;
#N canvas 201 132 450 300 s_botoes 0;
#X obj 40 186 s botao1;
#X obj 105 186 s botao2;
#X obj 169 187 s botao3;
#X obj 233 186 s botao4;
#X obj 298 186 s botao5;
#X obj 362 187 s botao6;
#X obj 164 27 inlet;
#X obj 174 37 inlet;
#X obj 184 47 inlet;
#X obj 194 57 inlet;
#X obj 204 67 inlet;
#X obj 214 77 inlet;
#X connect 6 0 0 0;
#X connect 7 0 1 0;
#X connect 8 0 2 0;
#X connect 9 0 3 0;
#X connect 10 0 4 0;
#X connect 11 0 5 0;
#X restore 129 195 pd s_botoes;
#X floatatom 243 172 5 0 0 0 - - -, f 5;
#X floatatom 278 172 5 0 0 0 - - -, f 5;
#X floatatom 313 172 5 0 0 0 - - -, f 5;
#X text 151 146 Notas MIDI;
#X text 294 146 Controle MIDI;
#X msg 279 42 16 17 18 19 20 21;
#X floatatom 348 172 5 0 0 0 - - -, f 5;
#X floatatom 383 172 5 0 0 0 - - -, f 5;
#X floatatom 418 171 5 0 0 0 - - -, f 5;
#X obj 241 194 s cc1;
#X obj 278 194 s cc2;
#X obj 314 194 s cc3;
#X obj 348 194 s cc4;
#X obj 382 194 s cc5;
#X obj 416 194 s cc6;
#X connect 1 0 6 0;
#X connect 1 1 7 0;
#X connect 1 2 8 0;
#X connect 1 3 9 0;
#X connect 1 4 10 0;
#X connect 1 5 11 0;
#X connect 2 0 18 0;
#X connect 2 0 5 0;
#X connect 3 0 13 0;
#X connect 3 1 14 0;
#X connect 3 2 15 0;
#X connect 3 3 19 0;
#X connect 3 4 20 0;
#X connect 3 5 21 0;
#X connect 5 0 1 0;
#X connect 6 0 12 0;
#X connect 7 0 12 1;
#X connect 8 0 12 2;
#X connect 9 0 12 3;
#X connect 10 0 12 4;
#X connect 11 0 12 5;
#X connect 13 0 22 0;
#X connect 14 0 23 0;
#X connect 15 0 24 0;
#X connect 18 0 3 0;
#X connect 19 0 25 0;
#X connect 20 0 26 0;
#X connect 21 0 27 0;
#X coords 0 -1 1 1 350 140 2 100 100;
#X restore 13 -14 pd entradasMidi;
#N canvas 0 23 450 300 teremin 0;
#X obj 101 101 cnv 15 320 140 empty empty Teremin 20 12 0 14 -187925
-66577 0;
#X obj 369 124 vsl 20 80 0 1 0 1 empty empty vol. 0 -9 0 10 -262144
-1 -1 4900 1;
#X obj 125 304 *~;
#X floatatom 363 213 5 0 0 0 - - -, f 5;
#X obj 166 212 hsl 128 17 0 1 0 1 empty empty empty -2 -8 0 10 -262144
-1 -1 12700 1;
#X text 106 212 send_fx;
#X obj 169 328 *~;
#X obj 125 250 phasor~;
#X floatatom 310 193 5 0 0 0 - - -, f 5;
#X obj 70 352 s~ mt;
#X obj 169 352 s~ st;
#X obj 119 123 tgl 15 0 empty empty empty 17 7 0 10 -262144 -1 -1 0
1;
#X text 137 122 liga/desliga;
#X obj 127 274 *~;
#X obj 113 161 hsl 200 30 60 2000 0 1 empty empty empty -2 -8 0 10
-262144 -1 -1 8592 1;
#X text 109 144 frequencia (Hz);
#X obj 26 96 r teremin;
#X obj 90 30 r teremin_toggle;
#X obj 47 273 select 0;
#X msg 29 303 0;
#X msg 68 302 1;
#X connect 1 0 2 1;
#X connect 1 0 3 0;
#X connect 2 0 6 0;
#X connect 2 0 9 0;
#X connect 4 0 6 1;
#X connect 6 0 10 0;
#X connect 7 0 13 0;
#X connect 8 0 7 0;
#X connect 11 0 18 0;
#X connect 13 0 2 0;
#X connect 14 0 8 0;
#X connect 16 0 14 0;
#X connect 17 0 11 0;
#X connect 18 0 19 0;
#X connect 18 1 20 0;
#X connect 19 0 13 1;
#X connect 20 0 13 1;
#X coords 0 -1 1 1 320 140 1 100 100;
#X restore 1039 -12 pd teremin;
#X obj 764 56 / 127;
#N canvas 0 22 1144 731 outrosEfeitos 0;
#N canvas 222 297 450 300 filtro_pb 0;
#X floatatom 172 179 7 0 0 0 - - -, f 7;
#X obj 44 200 lop~;
#X obj 106 146 hsl 190 30 0 20000 0 1 empty empty filtro_passa_baixa_(f_corte)
-2 -8 0 10 -262144 -1 -1 18900 1;
#X obj 44 111 inlet~;
#X obj 44 234 outlet~;
#X obj 299 74 inlet;
#X connect 1 0 4 0;
#X connect 2 0 0 0;
#X connect 2 0 1 1;
#X connect 3 0 1 0;
#X connect 5 0 2 0;
#X coords 0 -1 1 1 200 100 1 100 100;
#X restore 45 70 pd filtro_pb;
#X obj 176 49 r filtro_pb;
#N canvas 222 297 450 300 filtro_pa 0;
#X floatatom 172 179 7 0 0 0 - - -, f 7;
#X obj 106 146 hsl 190 30 0 20000 0 1 empty empty filtro_passa_alta_(f_corte)
-2 -8 0 10 -262144 -1 -1 0 1;
#X obj 44 111 inlet~;
#X obj 44 234 outlet~;
#X obj 299 74 inlet;
#X obj 44 199 hip~;
#X connect 1 0 0 0;
#X connect 1 0 5 1;
#X connect 2 0 5 0;
#X connect 4 0 1 0;
#X connect 5 0 3 0;
#X coords 0 -1 1 1 200 100 1 100 100;
#X restore 42 200 pd filtro_pa;
#X obj 172 179 r filtro_pa;
#X obj 353 138 s filtro_pb;
#X obj 353 117 / 127;
#X obj 356 97 * 20000;
#X obj 447 116 / 127;
#X obj 447 96 * 20000;
#X obj 447 137 s filtro_pa;
#X obj 697 130 / 127;
#X obj 697 109 * 10;
#X obj 697 152 s ganho;
#X connect 0 0 2 0;
#X connect 1 0 0 1;
#X connect 3 0 2 1;
#X connect 5 0 4 0;
#X connect 6 0 5 0;
#X connect 7 0 9 0;
#X connect 8 0 7 0;
#X connect 10 0 12 0;
#X connect 11 0 10 0;
#X restore 1032 712 pd outrosEfeitos;
#X obj 764 36 * 2000;
#X obj 764 95 s teremin;
#X obj 887 89 s teremin_toggle;
#X obj 925 63 select 127;
#X obj 876 23 tgl 15 0 empty empty empty 17 7 0 10 -262144 -1 -1 0
1;
#X obj 894 23 tgl 15 0 empty empty empty 17 7 0 10 -262144 -1 -1 0
1;
#X obj 913 23 tgl 15 0 empty empty empty 17 7 0 10 -262144 -1 -1 0
1;
#X obj 933 24 tgl 15 0 empty empty empty 17 7 0 10 -262144 -1 -1 0
1;
#X obj 953 24 tgl 15 0 empty empty empty 17 7 0 10 -262144 -1 -1 0
1;
#X obj 974 24 tgl 15 0 empty empty empty 17 7 0 10 -262144 -1 -1 0
1;
#N canvas 201 132 450 300 r_botoes 0;
#X obj 39 50 r botao1;
#X obj 104 50 r botao2;
#X obj 169 51 r botao3;
#X obj 232 50 r botao4;
#X obj 297 50 r botao5;
#X obj 361 51 r botao6;
#X obj 57 154 outlet;
#X obj 110 154 outlet;
#X obj 266 153 outlet;
#X obj 211 151 outlet;
#X obj 323 157 outlet;
#X obj 159 153 outlet;
#X connect 0 0 6 0;
#X connect 1 0 7 0;
#X connect 2 0 11 0;
#X connect 3 0 9 0;
#X connect 4 0 8 0;
#X connect 5 0 10 0;
#X restore 893 -1 pd r_botoes;
#X floatatom 419 80 5 0 0 0 - - -, f 5;
#X floatatom 509 75 5 0 0 0 - - -, f 5;
#X floatatom 596 78 5 0 0 0 - - -, f 5;
#X floatatom 763 77 5 0 0 0 - - -, f 5;
#X obj 509 13 r cc1;
#X obj 594 30 r cc2;
#X obj 764 11 r cc3;
#X obj 625 -1 r cc4;
#X obj 670 -1 r cc5;
#X obj 670 21 r cc6;
#X connect 1 0 2 0;
#X connect 2 0 56 0;
#X connect 3 0 57 0;
#X connect 5 0 55 0;
#X connect 9 0 20 1;
#X connect 10 0 20 2;
#X connect 12 0 13 0;
#X connect 12 0 13 1;
#X connect 14 0 12 1;
#X connect 15 0 16 0;
#X connect 16 0 25 0;
#X connect 20 0 21 0;
#X connect 21 0 8 0;
#X connect 22 0 21 1;
#X connect 23 0 20 0;
#X connect 24 0 5 0;
#X connect 26 0 25 0;
#X connect 29 0 12 0;
#X connect 42 0 58 0;
#X connect 44 0 42 0;
#X connect 47 0 46 0;
#X connect 50 0 46 0;
#X connect 54 0 48 0;
#X connect 54 1 49 0;
#X connect 54 2 50 0;
#X connect 54 3 51 0;
#X connect 54 4 52 0;
#X connect 54 5 53 0;
#X connect 55 0 4 0;
#X connect 56 0 28 0;
#X connect 57 0 27 0;
#X connect 58 0 45 0;
#X connect 59 0 1 0;
#X connect 60 0 3 0;
#X connect 61 0 44 0;
#X coords 0 0 1 1 85 60 0;
